<?xml version="1.0"?>
<svg xmlns="http://www.w3.org/2000/svg" id="Capa_1" enable-background="new 0 0 512 512" height="512px" viewBox="0 0 512 512" width="512px" class=""><g><g><path d="m496 172h-480c-8.284 0-15-6.716-15-15v-62c0-30.327 24.673-55 55-55h400c30.327 0 55 24.673 55 55v62c0 8.284-6.716 15-15 15z" fill="#ff6ec1" data-original="#FF6EC1" class="active-path" data-old_color="#ff6ec1" style="fill:#000066"/><path d="m456 40h-200v132h240c8.284 0 15-6.716 15-15v-62c0-30.327-24.673-55-55-55z" fill="#ff46a0" data-original="#FF46A0" class="" data-old_color="#ff46a0" style="fill:#FF0505"/><path d="m1 157v300c0 30.327 24.673 55 55 55h400c30.327 0 55-24.673 55-55v-300z" fill="#dcf0ff" data-original="#DCF0FF" class=""/><path d="m256 157v355h200c30.327 0 55-24.673 55-55v-300z" fill="#bedcf0" data-original="#BEDCF0" class=""/><g fill="#445064"><path d="m202 110c-8.284 0-15-6.716-15-15v-80c0-8.284 6.716-15 15-15s15 6.716 15 15v80c0 8.284-6.716 15-15 15z" data-original="#445064" class=""/><path d="m94 110c-8.284 0-15-6.716-15-15v-80c0-8.284 6.716-15 15-15s15 6.716 15 15v80c0 8.284-6.716 15-15 15z" data-original="#445064" class=""/><path d="m310 110c-8.284 0-15-6.716-15-15v-80c0-8.284 6.716-15 15-15s15 6.716 15 15v80c0 8.284-6.716 15-15 15z" data-original="#445064" class=""/><path d="m418 110c-8.284 0-15-6.716-15-15v-80c0-8.284 6.716-15 15-15s15 6.716 15 15v80c0 8.284-6.716 15-15 15z" data-original="#445064" class=""/></g><path d="m445.55 234.887c-11.071-15.523-32.874-16.84-45.763-3.948l-47.881 47.881c-8.499 8.5-19.799 13.18-31.819 13.18h-64.087c-8.284 0-15 6.716-15 15v130c0 8.284 6.716 15 15 15h110c8.284 0 15-6.716 15-15v-102.421l61.213-61.214c6.591-6.59 9.737-15.707 8.535-25.167-.607-4.786-2.396-9.383-5.198-13.311z" fill="#8cc314" data-original="#8CC314" class="" style="fill:#000066" data-old_color="#8cc314"/><path d="m318.5 297c-26.191 0-47.5-21.309-47.5-47.5s21.309-47.5 47.5-47.5 47.5 21.309 47.5 47.5-21.309 47.5-47.5 47.5z" fill="#ffc896" data-original="#FFC896" class=""/><path d="m69.787 230.939c11.697-11.697 30.73-11.698 42.426 0l47.881 47.881c8.499 8.5 19.799 13.18 31.819 13.18h64.087v160h-110c-8.284 0-15-6.716-15-15v-102.421l-61.213-61.214c-5.667-5.666-8.787-13.199-8.787-21.213 0-8.013 3.12-15.547 8.787-21.213z" fill="#49acff" data-original="#49ACFF" class="" style="fill:#FF0000" data-old_color="#49acff"/><path d="m146 249.5c0-26.191 21.309-47.5 47.5-47.5s47.5 21.309 47.5 47.5-21.309 47.5-47.5 47.5-47.5-21.309-47.5-47.5z" fill="#ffd5b6" data-original="#FFD5B6" class="" style="fill:#DE925B" data-old_color="#ffd5b6"/></g></g> </svg>
