<?xml version="1.0"?>
<svg xmlns="http://www.w3.org/2000/svg" xmlns:xlink="http://www.w3.org/1999/xlink" version="1.1" id="Capa_1" x="0px" y="0px" width="512px" height="512px" viewBox="0 0 36.449 36.448" style="enable-background:new 0 0 36.449 36.448;" xml:space="preserve" class=""><g><g>
	<g>
		<path d="M30.224,3.948h-1.098V2.75c0-1.517-1.197-2.75-2.67-2.75c-1.474,0-2.67,1.233-2.67,2.75v1.197h-10.82V2.75    c0-1.517-1.197-2.75-2.67-2.75c-1.473,0-2.67,1.233-2.67,2.75v1.197H6.224c-2.343,0-4.25,1.907-4.25,4.25v2h2.5h27.5h2.5v-2    C34.474,5.855,32.568,3.948,30.224,3.948z M11.466,7.646c0,0.689-0.525,1.25-1.17,1.25s-1.17-0.561-1.17-1.25V2.75    c0-0.689,0.525-1.25,1.17-1.25s1.17,0.561,1.17,1.25V7.646z M27.626,7.646c0,0.689-0.525,1.25-1.17,1.25    c-0.646,0-1.17-0.561-1.17-1.25V2.75c0-0.689,0.524-1.25,1.17-1.25c0.645,0,1.17,0.561,1.17,1.25V7.646z" data-original="#000000" class="active-path" data-old_color="#000000" fill="#FFFFFF"/>
		<rect x="26.128" y="17.314" width="2.596" height="2.088" data-original="#000000" class="active-path" data-old_color="#000000" fill="#FFFFFF"/>
		<rect x="13.859" y="17.314" width="2.596" height="2.088" data-original="#000000" class="active-path" data-old_color="#000000" fill="#FFFFFF"/>
		<rect x="19.996" y="17.314" width="2.595" height="2.088" data-original="#000000" class="active-path" data-old_color="#000000" fill="#FFFFFF"/>
		<path d="M1.974,32.198c0,2.343,1.907,4.25,4.25,4.25h24c2.344,0,4.25-1.907,4.25-4.25V12.099h-32.5V32.198z M25.128,16.314h4.596    v4.088h-4.596V16.314z M25.128,21.771h4.596v4.086h-4.596V21.771z M25.128,27.229h4.596v4.086h-4.596V27.229z M18.996,16.314    h4.595v4.088h-4.595V16.314z M18.996,21.771h4.595v4.086h-4.595V21.771z M18.996,27.229h4.595v4.086h-4.595V27.229z     M12.859,16.314h4.596v4.088h-4.596V16.314z M12.859,21.771h4.596v4.086h-4.596V21.771z M12.859,27.229h4.596v4.086h-4.596V27.229    z M6.724,21.771h4.596v4.086H6.724V21.771z M6.724,27.229h4.596v4.086H6.724V27.229z" data-original="#000000" class="active-path" data-old_color="#000000" fill="#FFFFFF"/>
	</g>
</g></g> </svg>
