<?xml version="1.0"?>
<svg xmlns="http://www.w3.org/2000/svg" id="Capa_1" enable-background="new 0 0 512 512" height="512px" viewBox="0 0 512 512" width="512px" class=""><g><g><g><path d="m46.741 365.524-30.583 22.458c-5.443 3.997-8.658 10.347-8.658 17.1v56.26c0 11.399 9.241 20.639 20.639 20.639h161.657c11.399 0 20.639-9.241 20.639-20.639v-56.26c0-6.753-3.215-13.103-8.658-17.1l-30.583-22.458z" fill="#5490f9" data-original="#5490F9" class=""/><path d="m210.436 461.342v-56.26c0-6.753-3.215-13.103-8.658-17.1l-30.583-22.458h-21.673l-14.184 10.416c-6.141 4.509-9.768 11.672-9.768 19.291v63.467c0 12.859 10.424 23.283 23.283 23.283h40.943c11.399 0 20.64-9.24 20.64-20.639z" fill="#4a81f6" data-original="#4A81F6"/><path d="m175.618 227.739h-28.45c-6.009 0-11.173 3.571-13.52 8.699v-1.73c0-10.276-8.33-18.606-18.606-18.606h-62.675c-17.34 0-31.397 14.057-31.397 31.397v57.232c0 5.434 4.405 9.839 9.839 9.839h101.485 1.354 47.886c8.522 0 15.431-6.909 15.431-15.431v-50.054c0-11.789-9.557-21.346-21.347-21.346z" fill="#e28424" data-original="#E28424"/><path d="m196.965 249.086c0-11.79-9.557-21.347-21.347-21.347h-28.45c-1.997 0-3.898.402-5.636 1.117v53.168c0 6.13 4.969 11.099 11.099 11.099h44.333v-44.037z" fill="#d56617" data-original="#D56617"/><path d="m108.968 411.164c-14.178 0-25.672-11.494-25.672-25.672v-.016h51.345v.016c-.001 14.178-11.495 25.672-25.673 25.672z" fill="#f1b986" data-original="#F1B986"/><path d="m128.492 272.952s-29.848 39.417-89.578 22.116v64.923c0 14.075 11.41 25.484 25.484 25.484h89.14c14.075 0 25.484-11.41 25.484-25.484v-66.884c-38.747 9.314-50.53-20.155-50.53-20.155z" fill="#ffe4c1" data-original="#FFE4C1" class=""/><path d="m128.492 272.952s-29.848 39.417-89.578 22.116v10.539c42.858 12.413 69.875-.723 81.718-9.134 3.82-2.713 9.009-2.645 12.612.351 4.365 3.63 11.512 7.701 22.289 8.795 5.325.541 9.416 4.948 9.416 10.301v21.115c0 7.646-3.64 14.835-9.803 19.361l-19.808 14.545c-4.84 3.554-8.109 8.76-9.281 14.536h13.407 14.073c7.274 0 14.064-3.068 18.864-8.349 9.944-10.941 5.563-22.588 6.62-31.521v-41.959-10.539c-38.525 9.26-50.438-20.107-50.529-20.157z" fill="#f1d0a5" data-original="#F1D0A5" class=""/><path d="m340.805 365.524-30.583 22.458c-5.443 3.997-8.658 10.347-8.658 17.1v56.26c0 11.399 9.241 20.639 20.639 20.639h161.657c11.399 0 20.639-9.241 20.639-20.639v-56.26c0-6.753-3.215-13.103-8.658-17.1l-30.583-22.458z" fill="#5490f9" data-original="#5490F9" class=""/><path d="m495.842 387.982-30.582-22.458h-124.455l-6.036 4.432h111.646l30.582 22.458c5.443 3.997 8.658 10.347 8.658 17.1v56.26c0 6.575-3.078 12.427-7.868 16.207h6.072c11.399 0 20.639-9.241 20.639-20.639v-56.26c.002-6.753-3.213-13.103-8.656-17.1z" fill="#4a81f6" data-original="#4A81F6"/><path d="m469.682 227.739h-28.45c-6.009 0-11.173 3.571-13.52 8.699v-1.73c0-10.276-8.33-18.606-18.606-18.606h-62.676c-17.34 0-31.397 14.057-31.397 31.397v57.232c0 5.434 4.405 9.839 9.839 9.839h101.485 1.354 47.886c8.522 0 15.431-6.909 15.431-15.431v-50.054c.001-11.789-9.556-21.346-21.346-21.346z" fill="#e28424" data-original="#E28424"/><g><path d="m469.682 227.739h-13.47c11.79 0 21.347 9.557 21.347 21.347v50.054c0 8.522-6.909 15.431-15.431 15.431h13.47c8.522 0 15.431-6.909 15.431-15.431v-50.054c.001-11.79-9.557-21.347-21.347-21.347z" fill="#d56617" data-original="#D56617"/></g><path d="m403.032 411.164c-14.178 0-25.672-11.494-25.672-25.672v-.016h51.345v.016c-.001 14.178-11.495 25.672-25.673 25.672z" fill="#f1b986" data-original="#F1B986"/><path d="m422.556 272.952s-29.848 39.417-89.578 22.116v64.923c0 14.075 11.41 25.484 25.484 25.484h89.14c14.075 0 25.484-11.41 25.484-25.484v-66.884c-38.747 9.314-50.53-20.155-50.53-20.155z" fill="#ffe4c1" data-original="#FFE4C1" class=""/><path d="m422.556 272.952s-29.848 39.417-89.578 22.116v10.539c42.917 12.43 69.949-.759 81.767-9.169 3.857-2.745 9.035-2.52 12.689.49 4.376 3.604 11.491 7.608 22.166 8.691 5.324.54 9.413 4.949 9.413 10.301v44.072c0 14.075-11.41 25.484-25.484 25.484h14.073c14.075 0 25.484-11.41 25.484-25.484v-56.346-10.539c-38.526 9.262-50.439-20.105-50.53-20.155z" fill="#f1d0a5" data-original="#F1D0A5" class=""/><path d="m185.801 350.605-34.5 25.335c-6.141 4.509-9.767 11.672-9.767 19.291v63.467c0 12.859 10.424 23.283 23.283 23.283h182.367c12.859 0 23.283-10.424 23.283-23.283v-63.468c0-7.618-3.627-14.782-9.768-19.291l-34.5-25.335h-140.398z" fill="#d82e3d" data-original="#D82E3D"/><path d="m360.699 375.94-34.5-25.335h-140.398l-6.809 5h125.949l34.5 25.335c6.141 4.509 9.768 11.672 9.768 19.291v63.467c0 7.417-3.473 14.02-8.876 18.283h6.85c12.859 0 23.283-10.424 23.283-23.283v-63.468c.001-7.618-3.626-14.781-9.767-19.29z" fill="#b93333" data-original="#B93333"/><path d="m331.189 195.168h-32.094c-6.779 0-12.604 4.028-15.252 9.814v-1.952c0-11.592-9.397-20.99-20.99-20.99h-70.705c-19.562 0-35.419 15.858-35.419 35.42v64.565c0 6.13 4.969 11.099 11.099 11.099h114.487 1.528 54.02c9.614 0 17.408-7.794 17.408-17.408v-56.466c0-13.301-10.782-24.082-24.082-24.082z" fill="#544f57" data-original="#544F57"/><g><path d="m331.189 195.168h-15.196c13.3 0 24.082 10.782 24.082 24.082v56.466c0 9.614-7.794 17.408-17.408 17.408h15.196c9.614 0 17.408-7.794 17.408-17.408v-56.466c0-13.301-10.782-24.082-24.082-24.082z" fill="#454045" data-original="#454045"/></g><path d="m256 402.091c-15.995 0-28.961-12.966-28.961-28.961v-.018h57.922v.018c0 15.995-12.966 28.961-28.961 28.961z" fill="#f1b986" data-original="#F1B986"/><path d="m278.025 246.173s-33.671 44.466-101.054 24.95v73.241c0 15.878 12.871 28.749 28.749 28.749h100.559c15.878 0 28.749-12.871 28.749-28.749v-75.454c-43.71 10.508-57.003-22.737-57.003-22.737z" fill="#ffe4c1" data-original="#FFE4C1" class=""/><path d="m278.025 246.173s-33.671 44.466-101.054 24.95v11.889c48.415 14.023 78.91-.856 92.242-10.343 4.351-3.097 10.192-2.843 14.315.552 4.937 4.066 12.963 8.582 25.005 9.804 6.006.609 10.619 5.583 10.619 11.62v49.719c0 15.878-12.871 28.749-28.749 28.749h15.876c15.878 0 28.749-12.871 28.749-28.749v-63.564-11.89c-43.461 10.449-56.9-22.68-57.003-22.737z" fill="#f1d0a5" data-original="#F1D0A5" class=""/><path d="m466.584 30.018h-421.169c-12.085 0-21.882 9.797-21.882 21.882v32.864c0 12.085 9.797 21.882 21.882 21.882h10.702c2.812 0 5.478 1.255 7.269 3.424l21.755 26.336c2.029 2.456 5.792 2.456 7.82 0l21.755-26.336c1.791-2.168 4.456-3.424 7.269-3.424h104.115c2.812 0 5.478 1.255 7.269 3.424l21.755 26.336c2.029 2.456 5.792 2.456 7.82 0l21.755-26.336c1.791-2.168 4.456-3.424 7.269-3.424h98.046c2.812 0 5.478 1.255 7.269 3.424l21.755 26.336c2.029 2.456 5.792 2.456 7.82 0l21.755-26.336c1.791-2.168 4.456-3.424 7.269-3.424h10.702c12.085 0 21.882-9.797 21.882-21.882v-32.864c0-12.085-9.797-21.882-21.882-21.882z" fill="#f1d333" data-original="#F1D333"/><g fill="#eab14d"><path d="m98.683 110.069-17.648 21.365 4.107 4.971c2.029 2.456 5.792 2.456 7.82 0l21.755-26.336c1.791-2.168 4.457-3.424 7.269-3.424h-16.034c-2.813.001-5.478 1.256-7.269 3.424z" data-original="#EAB14D"/><path d="m466.584 30.018h-16.034c12.085 0 21.882 9.797 21.882 21.882v32.864c0 12.085-9.797 21.882-21.882 21.882h-10.702c-2.812 0-5.478 1.255-7.269 3.424l-17.648 21.365 4.107 4.971c2.029 2.456 5.792 2.456 7.82 0l21.755-26.336c1.791-2.168 4.457-3.424 7.269-3.424h10.702c12.085 0 21.882-9.797 21.882-21.882v-32.864c0-12.085-9.797-21.882-21.882-21.882z" data-original="#EAB14D"/><path d="m268.666 110.069-17.648 21.365 4.107 4.971c2.029 2.456 5.792 2.456 7.82 0l21.755-26.336c1.791-2.168 4.457-3.424 7.269-3.424h-16.034c-2.813.001-5.478 1.256-7.269 3.424z" data-original="#EAB14D"/></g></g><g><path d="m88.582 337.994v-10.332c0-4.143-3.358-7.5-7.5-7.5s-7.5 3.357-7.5 7.5v10.332c0 4.143 3.358 7.5 7.5 7.5s7.5-3.357 7.5-7.5z" data-original="#000000" class="active-path" style="fill:#000000"/><path d="m136.854 345.494c4.142 0 7.5-3.357 7.5-7.5v-10.332c0-4.143-3.358-7.5-7.5-7.5s-7.5 3.357-7.5 7.5v10.332c0 4.143 3.358 7.5 7.5 7.5z" data-original="#000000" class="active-path" style="fill:#000000"/><path d="m500.281 381.937-20.436-15.006c.481-2.239.741-4.559.741-6.939v-38.473c10.253-2.284 17.944-11.447 17.944-22.378v-47.018c0-4.142-3.357-7.5-7.5-7.5s-7.5 3.358-7.5 7.5v47.018c0 2.485-1.15 4.704-2.944 6.159v-12.191c0-2.298-1.053-4.469-2.857-5.891s-4.162-1.938-6.396-1.401c-13.431 3.226-24.488 1.623-32.868-4.771-6.368-4.856-8.941-10.874-8.944-10.878-.999-2.5-3.272-4.259-5.939-4.63-2.666-.371-5.338.729-6.983 2.859-.93 1.204-20.535 25.904-59.726 23.39 3.676-4.341 5.9-9.95 5.9-16.071v-52.114h46.336c6.124 0 11.106 4.982 11.106 11.106v1.73c0 3.527 2.457 6.577 5.903 7.328 3.492.76 6.969-1.043 8.417-4.208 1.2-2.625 3.83-4.32 6.699-4.32h28.449c.566 0 1.203.054 2.004.169 4.091.594 7.902-2.25 8.495-6.35s-2.251-7.903-6.35-8.496c-1.528-.221-2.847-.324-4.149-.324h-28.449c-3.229 0-6.355.704-9.198 1.993-4.434-8.113-13.049-13.629-22.928-13.629h-48.188c-4.379-12.19-16.051-20.934-29.73-20.934h-32.094c-3.814 0-7.5.905-10.798 2.551-4.698-9.293-14.339-15.679-25.444-15.679h-70.705c-23.666 0-42.919 19.253-42.919 42.919v2.779h-2.06c-3.228 0-6.356.704-9.199 1.993-4.433-8.113-13.048-13.629-22.927-13.629h-62.677c-21.448 0-38.897 17.449-38.897 38.897v57.232c0 9.561 7.778 17.339 17.339 17.339h.605v37.921c0 2.38.259 4.7.741 6.939l-20.435 15.007c-7.339 5.388-11.72 14.042-11.72 23.146v56.26c0 15.517 12.623 28.14 28.139 28.14h17.808c4.142 0 7.5-3.357 7.5-7.5s-3.358-7.5-7.5-7.5h-17.808c-7.245 0-13.139-5.895-13.139-13.14v-56.26c0-4.349 2.092-8.481 5.597-11.056l18.151-13.329c6.052 7.482 15.299 12.278 25.649 12.278h12.259c3.404 14.698 16.593 25.688 32.31 25.688 10.002 0 18.978-4.456 25.065-11.483v51.516c0 5.766 1.597 11.166 4.367 15.784h-62.464c-4.142 0-7.5 3.357-7.5 7.5s3.358 7.5 7.5 7.5c291.208 0 272.852-.216 407.927 0 15.516 0 28.139-12.623 28.139-28.14v-56.26c0-9.101-4.381-17.754-11.719-23.143zm-79.059-96.798c7.765 9.676 22.221 19.297 44.363 16.889v57.964c0 9.917-8.067 17.984-17.983 17.984-14.934 0-59.951 0-74.812 0-2.03-3.094-4.606-5.845-7.65-8.081l-23.564-17.303c.617-2.646.953-5.398.953-8.228v-39.305c40.686 7.706 66.853-9.292 78.693-19.92zm-1.631 107.837c-2.857 6.298-9.206 10.688-16.56 10.688-7.352 0-13.697-4.388-16.556-10.688zm-213.871-27.364c-11.717 0-21.249-9.532-21.249-21.249v-63.617c32.356 6.951 56.613-.323 71.73-8.113 9.029-4.651 15.861-9.979 20.494-14.22 2.175 2.838 5.054 5.979 8.768 8.936 8.144 6.486 21.735 13.075 42.065 10.553v66.462c0 11.717-9.532 21.249-21.249 21.249-35.567-.001-65.236-.001-100.559-.001zm70.396 15c-3.043 8.155-10.912 13.979-20.116 13.979-9.2 0-17.067-5.819-20.113-13.979zm-111.887-163.153c0-15.395 12.524-27.919 27.919-27.919h70.705c7.438 0 13.49 6.051 13.49 13.489v1.952c0 3.527 2.457 6.577 5.903 7.328 3.442.748 6.948-1.001 8.417-4.208 1.51-3.301 4.82-5.435 8.432-5.435h32.094c9.144 0 16.582 7.438 16.582 16.582v56.466c0 3.777-2.125 7.064-5.242 8.735v-15.539c0-2.298-1.053-4.469-2.857-5.891s-4.162-1.938-6.396-1.401c-36.479 8.77-47.796-17.059-48.304-18.272-1.009-2.479-3.272-4.222-5.926-4.59-2.666-.372-5.339.731-6.982 2.865-.078.102-8.004 10.253-23.365 18-20.45 10.311-43.88 11.759-69.641 4.296-2.267-.654-4.707-.208-6.592 1.208-1.885 1.417-2.995 3.638-2.995 5.996v14.501h-1.643c-1.984 0-3.599-1.614-3.599-3.599zm-133.42 89.611c-1.29 0-2.339-1.049-2.339-2.339v-57.232c0-13.177 10.72-23.897 23.897-23.897h62.676c6.124 0 11.106 4.982 11.106 11.106v1.73c0 3.527 2.457 6.577 5.903 7.328 3.445.748 6.949-1.001 8.417-4.208 1.201-2.625 3.831-4.32 6.7-4.32h2.06v46.786c0 .707.048 1.403.125 2.09-2.132-1.048-4.126-2.341-5.977-3.884-5.622-4.685-7.921-10.063-7.921-10.063-1-2.5-3.273-4.259-5.939-4.63-2.667-.369-5.338.729-6.983 2.859-1.109 1.439-27.791 35.037-81.532 19.468-2.265-.653-4.707-.208-6.592 1.208-1.885 1.417-2.994 3.638-2.994 5.996v12.002zm15.605 52.921v-55.343c28.409 5.843 49.755-.597 63.123-7.484 7.646-3.939 13.538-8.426 17.671-12.122 1.573 1.972 3.513 4.074 5.869 6.119 6.884 5.972 18.633 12.463 36.394 11.065v42.138c0 2.831.337 5.582.953 8.228l-23.564 17.303c-3.044 2.236-5.621 4.987-7.651 8.081-16.387 0-59.518 0-74.812 0-9.916 0-17.983-8.068-17.983-17.985zm62.554 43.673c-7.351 0-13.697-4.388-16.556-10.688h33.115c-2.858 6.297-9.206 10.688-16.559 10.688zm55.848 70.817c-8.703 0-15.784-7.081-15.784-15.784v-63.467c0-5.21 2.507-10.162 6.707-13.246l21.226-15.587c6.632 8.634 17.052 14.215 28.755 14.215h14.594c3.461 16.528 18.145 28.979 35.686 28.979 17.537 0 32.218-12.446 35.684-28.979h14.596c11.703 0 22.123-5.58 28.755-14.214l21.226 15.586c4.199 3.084 6.707 8.036 6.707 13.246v63.467c0 8.703-7.081 15.784-15.784 15.784zm332.184-13.139c0 7.245-5.894 13.14-13.139 13.14h-110.261c2.77-4.619 4.367-10.018 4.367-15.784v-51.513c6.087 7.024 15.062 11.48 25.064 11.48 15.714 0 28.901-10.986 32.309-25.688h12.262c10.35 0 19.597-4.796 25.649-12.278l18.151 13.329c3.505 2.574 5.598 6.707 5.598 11.056z" data-original="#000000" class="active-path" style="fill:#000000"/><path d="m375.146 345.494c4.143 0 7.5-3.357 7.5-7.5v-10.332c0-4.143-3.357-7.5-7.5-7.5s-7.5 3.357-7.5 7.5v10.332c0 4.143 3.357 7.5 7.5 7.5z" data-original="#000000" class="active-path" style="fill:#000000"/><path d="m430.918 345.494c4.143 0 7.5-3.357 7.5-7.5v-10.332c0-4.143-3.357-7.5-7.5-7.5s-7.5 3.357-7.5 7.5v10.332c0 4.143 3.358 7.5 7.5 7.5z" data-original="#000000" class="active-path" style="fill:#000000"/><path d="m466.973 420.685h-28.367c-4.143 0-7.5 3.357-7.5 7.5s3.357 7.5 7.5 7.5h28.367c4.143 0 7.5-3.357 7.5-7.5s-3.357-7.5-7.5-7.5z" data-original="#000000" class="active-path" style="fill:#000000"/><path d="m224.541 300.393c-4.142 0-7.5 3.357-7.5 7.5v11.655c0 4.143 3.358 7.5 7.5 7.5s7.5-3.357 7.5-7.5v-11.655c0-4.143-3.358-7.5-7.5-7.5z" data-original="#000000" class="active-path" style="fill:#000000"/><path d="m287.458 300.393c-4.143 0-7.5 3.357-7.5 7.5v11.655c0 4.143 3.357 7.5 7.5 7.5s7.5-3.357 7.5-7.5v-11.655c0-4.143-3.357-7.5-7.5-7.5z" data-original="#000000" class="active-path" style="fill:#000000"/><path d="m328.133 413.793h-32.002c-4.143 0-7.5 3.357-7.5 7.5s3.357 7.5 7.5 7.5h32.002c4.143 0 7.5-3.357 7.5-7.5s-3.357-7.5-7.5-7.5z" data-original="#000000" class="active-path" style="fill:#000000"/><path d="m95.555 59.321h-12.844c-4.142 0-7.5 3.358-7.5 7.5s3.358 7.5 7.5 7.5h12.843c4.142 0 7.5-3.358 7.5-7.5s-3.357-7.5-7.499-7.5z" data-original="#000000" class="active-path" style="fill:#000000"/><path d="m178.988 74.321c4.142 0 7.5-3.358 7.5-7.5s-3.358-7.5-7.5-7.5h-12.843c-4.142 0-7.5 3.358-7.5 7.5s3.358 7.5 7.5 7.5z" data-original="#000000" class="active-path" style="fill:#000000"/><path d="m262.421 74.321c4.143 0 7.5-3.358 7.5-7.5s-3.357-7.5-7.5-7.5h-12.843c-4.142 0-7.5 3.358-7.5 7.5s3.358 7.5 7.5 7.5z" data-original="#000000" class="active-path" style="fill:#000000"/><path d="m345.855 74.321c4.143 0 7.5-3.358 7.5-7.5s-3.357-7.5-7.5-7.5h-12.843c-4.143 0-7.5 3.358-7.5 7.5s3.357 7.5 7.5 7.5z" data-original="#000000" class="active-path" style="fill:#000000"/><path d="m429.289 74.321c4.143 0 7.5-3.358 7.5-7.5s-3.357-7.5-7.5-7.5h-12.844c-4.143 0-7.5 3.358-7.5 7.5s3.357 7.5 7.5 7.5z" data-original="#000000" class="active-path" style="fill:#000000"/><path d="m45.416 114.146h10.702c.578 0 1.119.255 1.487.7l21.754 26.335c2.396 2.902 5.929 4.566 9.693 4.566s7.296-1.664 9.692-4.565l21.754-26.335c.368-.445.911-.701 1.488-.701h104.114c.578 0 1.119.255 1.487.7l21.755 26.336c2.397 2.902 5.93 4.566 9.694 4.565 3.763 0 7.296-1.665 9.691-4.565l21.755-26.335c.367-.445.909-.7 1.486-.7h98.046c.577 0 1.119.255 1.486.7l21.755 26.335c2.396 2.902 5.93 4.566 9.693 4.566s7.297-1.664 9.692-4.565l21.755-26.335c.367-.445.909-.7 1.486-.7h10.702c16.201 0 29.382-13.181 29.382-29.382v-32.866c0-16.201-13.181-29.382-29.382-29.382h-335.086c-4.142 0-7.5 3.358-7.5 7.5s3.358 7.5 7.5 7.5h335.087c7.93 0 14.382 6.452 14.382 14.382v32.864c0 7.93-6.452 14.382-14.382 14.382h-10.702c-5.066 0-9.823 2.24-13.051 6.147l-19.883 24.069-19.884-24.07c-3.228-3.906-7.984-6.146-13.051-6.146h-98.046c-5.066 0-9.823 2.24-13.051 6.147l-19.883 24.07-19.883-24.07c-3.227-3.906-7.984-6.146-13.051-6.146h-104.114c-5.066 0-9.823 2.24-13.051 6.147l-19.883 24.069-19.883-24.07c-3.227-3.906-7.984-6.146-13.051-6.146h-10.701c-7.93 0-14.382-6.452-14.382-14.382v-32.865c0-7.93 6.452-14.382 14.382-14.382h56.094c4.142 0 7.5-3.358 7.5-7.5s-3.358-7.5-7.5-7.5h-56.094c-16.201 0-29.382 13.181-29.382 29.382v32.864c0 16.201 13.18 29.382 29.382 29.382z" data-original="#000000" class="active-path" style="fill:#000000"/></g></g></g> </svg>
