<?xml version="1.0"?>
<svg xmlns="http://www.w3.org/2000/svg" xmlns:xlink="http://www.w3.org/1999/xlink" version="1.1" id="Capa_1" x="0px" y="0px" width="512px" height="512px" viewBox="0 0 100.982 100.982" style="enable-background:new 0 0 100.982 100.982;" xml:space="preserve" class=""><g><g>
	<g>
		<path d="M70.284,19.792C70.284,8.862,61.424,0,50.491,0C40.174,0,31.703,7.897,30.784,17.975h12.883    c0.804-3.021,3.55-5.251,6.824-5.251c3.903,0,7.069,3.166,7.069,7.069c0,3.904-3.166,7.069-7.069,7.069    c-3.274,0-6.021-2.229-6.824-5.251H30.788c0.338,3.706,1.693,7.119,3.791,9.952l15.912,18.928V39.585    C61.424,39.585,70.284,30.722,70.284,19.792z" data-original="#000000" class="active-path" data-old_color="#000000" fill="#000066"/>
		<path d="M83.01,30.785v12.882c3.021,0.803,5.25,3.55,5.25,6.824c0,3.903-3.164,7.069-7.069,7.069    c-3.902,0-7.068-3.166-7.068-7.069c0-3.274,2.229-6.021,5.252-6.824V30.788c-3.708,0.338-7.12,1.693-9.954,3.791L50.491,50.491    h10.905c0,10.933,8.863,19.792,19.793,19.792c10.931,0,19.793-8.861,19.793-19.792C100.982,40.174,93.086,31.704,83.01,30.785z" data-original="#000000" class="active-path" data-old_color="#000000" fill="#000066"/>
		<path d="M30.698,81.189c0,10.93,8.861,19.793,19.793,19.793c10.317,0,18.787-7.897,19.706-17.975H57.315    c-0.804,3.021-3.55,5.25-6.824,5.25c-3.904,0-7.069-3.166-7.069-7.068c0-3.903,3.165-7.068,7.069-7.068    c3.272,0,6.021,2.229,6.824,5.251h12.879c-0.338-3.707-1.693-7.119-3.791-9.952L50.491,50.491v10.906    C39.559,61.397,30.698,70.26,30.698,81.189z" data-original="#000000" class="active-path" data-old_color="#000000" fill="#000066"/>
		<path d="M19.793,30.699C8.862,30.699,0,39.56,0,50.491c0,10.317,7.897,18.788,17.975,19.706V57.315    c-3.022-0.804-5.25-3.55-5.25-6.824c0-3.904,3.164-7.069,7.068-7.069c3.902,0,7.068,3.165,7.068,7.069    c0,3.274-2.229,6.021-5.251,6.824v12.879c3.707-0.338,7.119-1.694,9.953-3.792l18.928-15.911H39.585    C39.585,39.559,30.722,30.699,19.793,30.699z" data-original="#000000" class="active-path" data-old_color="#000000" fill="#000066"/>
	</g>
</g></g> </svg>
